<svg width="20" height="20" viewBox="0 0 20 20" fill="none" xmlns="http://www.w3.org/2000/svg">
<path d="M7.96958 2.625H13.3333C13.7245 2.625 14.0417 2.94213 14.0417 3.33333C14.0417 3.72454 13.7245 4.04167 13.3333 4.04167H8C7.17157 4.04167 6.59285 4.04222 6.14202 4.07905C5.69946 4.11521 5.44289 4.18277 5.24744 4.28236C4.83191 4.49408 4.49408 4.83191 4.28236 5.24744C4.18277 5.44289 4.11521 5.69946 4.07905 6.14202C4.04222 6.59285 4.04167 7.17157 4.04167 8V12C4.04167 12.8284 4.04222 13.4072 4.07905 13.858C4.11521 14.3005 4.18277 14.5571 4.28236 14.7526C4.49408 15.1681 4.83191 15.5059 5.24744 15.7176C5.44289 15.8172 5.69946 15.8848 6.14202 15.9209C6.59285 15.9578 7.17157 15.9583 8 15.9583H13.3333C13.7245 15.9583 14.0417 16.2755 14.0417 16.6667C14.0417 17.0579 13.7245 17.375 13.3333 17.375H7.96963C7.1787 17.375 6.54196 17.375 6.02666 17.3329C5.49649 17.2896 5.03274 17.1982 4.60428 16.9799C3.9222 16.6324 3.36764 16.0778 3.0201 15.3957C2.80179 14.9673 2.71041 14.5035 2.66709 13.9733C2.62499 13.458 2.62499 12.8214 2.625 12.0304V7.96958C2.62499 7.17865 2.62499 6.54196 2.66709 6.02666C2.71041 5.49649 2.80179 5.03274 3.0201 4.60428C3.36764 3.9222 3.9222 3.36764 4.60428 3.0201C5.03274 2.80179 5.49649 2.71041 6.02666 2.66709C6.54196 2.62499 7.17865 2.62499 7.96958 2.625Z" fill="var(------icon_primary, #1A1A1A)"/>
<path d="M15.7899 10.7077L13.6658 12.8318C13.3892 13.1084 13.3892 13.5569 13.6658 13.8335C13.9424 14.1102 14.3909 14.1102 14.6675 13.8335L17.4116 11.0895C18.0137 10.4874 18.0137 9.51128 17.4116 8.90923L14.6675 6.16515C14.3909 5.88853 13.9424 5.88853 13.6658 6.16515C13.3892 6.44177 13.3892 6.89026 13.6658 7.16688L15.7899 9.29102H8.75016C8.35896 9.29102 8.04183 9.60815 8.04183 9.99935C8.04183 10.3906 8.35896 10.7077 8.75016 10.7077H15.7899Z" fill="var(------icon_primary, #1A1A1A)"/>
</svg>
