<svg width="20" height="20" viewBox="0 0 20 20" fill="none" xmlns="http://www.w3.org/2000/svg">
<path d="M3.99951 11.5605C5.10408 11.5605 5.99951 12.456 5.99951 13.5605C5.99951 14.6651 5.10408 15.5605 3.99951 15.5605C2.89494 15.5605 1.99951 14.6651 1.99951 13.5605C1.99951 12.456 2.89494 11.5605 3.99951 11.5605ZM9.99951 11.5605C11.1041 11.5605 11.9995 12.456 11.9995 13.5605C11.9995 14.6651 11.1041 15.5605 9.99951 15.5605C8.89514 15.5603 7.99951 14.665 7.99951 13.5605C7.99951 12.4561 8.89514 11.5608 9.99951 11.5605ZM16.0005 11.5605C17.1049 11.5607 18.0005 12.4561 18.0005 13.5605C18.0005 14.665 17.1049 15.5603 16.0005 15.5605C14.8959 15.5605 14.0005 14.6651 14.0005 13.5605C14.0005 12.456 14.8959 11.5605 16.0005 11.5605Z" fill="url(#paint0_linear_5370_7600)"/>
<defs>
<linearGradient id="paint0_linear_5370_7600" x1="8.67914" y1="15.5605" x2="8.67914" y2="11.5605" gradientUnits="userSpaceOnUse">
<stop stop-color="#FFCF4F"/>
<stop offset="1" stop-color="#FD9F07"/>
</linearGradient>
</defs>
</svg>
