<svg width="24" height="24" viewBox="0 0 24 24" fill="none" xmlns="http://www.w3.org/2000/svg">
<path d="M11.2065 0.922852C13.4112 1.58067 15.2773 2.74839 15.9125 5.06152C15.9499 5.06114 16.1254 4.96949 16.1361 4.96387C16.6343 5.5623 17.363 6.74742 17.1879 8.19531C19.7659 10.2283 20.8869 13.8281 20.8871 17.4189C20.8871 17.6929 20.8765 18.1859 20.8725 18.3516L21.1 18.9219C21.6602 20.3222 20.8997 21.9057 19.4262 22.2266L18.4692 22.4229C16.2255 22.8533 13.9246 23.0973 12.017 23.0742H11.9877C9.80778 23.1005 7.11372 22.7772 4.57853 22.2266C3.10441 21.9062 2.34338 20.3225 2.90372 18.9219L3.13614 18.3418C3.13064 18.2287 3.12776 18.1364 3.12638 18.0039L3.1254 17.4189C3.12561 13.6229 4.37702 9.81549 7.2797 7.86133C7.24779 6.25426 8.07125 4.48606 10.1039 3.50684C11.1198 3.01751 11.6128 1.81312 11.2065 0.922852ZM7.71525 9.6709C5.80446 11.2956 4.82481 14.1499 4.82462 17.4189C4.82462 17.9874 4.82578 18.083 4.83439 18.2598L4.85196 18.6299L4.71427 18.9736L4.48282 19.5537C4.27881 20.0637 4.58125 20.4875 4.93985 20.5654C7.38403 21.0963 9.94638 21.3993 11.9672 21.375L11.975 21.374H12.0258L12.0375 21.375C14.0584 21.3994 16.6207 21.0964 19.0649 20.5654C19.4232 20.4871 19.7257 20.0633 19.5219 19.5537L19.2934 18.9834L19.1645 18.6592L19.1723 18.3105C19.1765 18.1399 19.1879 17.6682 19.1879 17.4189C19.1877 14.3054 18.2931 11.5586 16.559 9.90332C16.1244 10.5747 15.5172 11.1057 14.8461 11.459C14.0672 11.869 13.5965 12.1112 13.227 12.2861C13.0422 12.3736 12.9014 12.44 12.8031 12.4834C12.4474 12.6405 12.091 12.7835 11.7309 12.9297C10.9901 12.5828 10.3258 12.2653 9.63419 11.7627C9.06021 11.3455 8.24566 10.7176 7.71817 9.67676C7.71719 9.67481 7.71623 9.67285 7.71525 9.6709ZM12.0121 15.5605C14.6442 15.5606 16.7701 16.0821 16.9818 16.5498C16.9914 16.57 16.9975 16.5924 16.9975 16.6162C16.9975 16.6499 16.9858 16.6803 16.9682 16.7061C16.7902 16.9655 14.4295 18.2479 12.0121 18.248H11.9838C9.56632 18.248 7.20472 16.9655 7.02677 16.7061C7.00914 16.6803 6.99747 16.6498 6.99747 16.6162C6.99752 16.5925 7.00354 16.5699 7.0131 16.5498C7.22472 16.082 9.35138 15.5605 11.9838 15.5605H12.0121ZM12.5961 3.35059C12.2022 4.07573 11.5825 4.68241 10.8422 5.03906C8.90778 5.97101 8.69129 7.83517 9.23478 8.9082C9.56826 9.56626 10.0944 9.99607 10.6332 10.3877C11.0011 10.6551 11.3632 10.8573 11.7856 11.0684C11.8966 11.0219 12.0073 10.977 12.1166 10.9287C12.1895 10.8965 12.3052 10.8419 12.4994 10.75C12.8316 10.5928 13.2715 10.3661 14.0541 9.9541C14.7254 9.6007 15.2544 8.99914 15.4486 8.27539C15.5953 7.72869 15.4859 7.20314 15.2817 6.76172H14.6166L14.2729 5.51172C14.0174 4.58133 13.4596 3.88455 12.5961 3.35059Z" fill="#FF5967"/>
</svg>
