<svg width="24" height="24" viewBox="0 0 24 24" fill="none" xmlns="http://www.w3.org/2000/svg">
<path d="M9.99959 3C10.2757 3 10.4971 3.22387 10.4996 3.5C10.5092 4.56531 10.6387 5.74987 11.9996 5.75C13.3607 5.75 13.4899 4.56537 13.4996 3.5C13.5021 3.22394 13.7236 3.00012 13.9996 3H17.1207C18.3108 3.00014 19.439 3.53036 20.1988 4.44629L23.4019 8.30957C23.7379 8.71474 23.7027 9.31056 23.3209 9.67285L19.2857 13.5V17.5L19.2799 17.7061C19.1726 19.8193 17.4256 21.4998 15.2857 21.5H8.71346C6.50461 21.4997 4.71346 19.7089 4.71346 17.5V13.5L0.6783 9.67285C0.296663 9.31058 0.261382 8.7147 0.597245 8.30957L3.80037 4.44629C4.56015 3.53035 5.68845 3.0002 6.8785 3H9.99959ZM6.8785 4.7002C6.19422 4.7004 5.54578 5.00548 5.10896 5.53223L2.32381 8.88965L5.11873 11.541L5.98103 10.4326C6.12718 10.2447 6.4283 10.3479 6.4283 10.5859V13.2861H6.41365V17.5C6.41365 18.77 7.4435 19.7995 8.71346 19.7998H15.2857C16.5558 19.7996 17.5855 18.7701 17.5855 17.5V13.2861H17.5719V10.5977C17.572 10.3585 17.8751 10.2561 18.0201 10.4463L18.8648 11.5547L21.6744 8.88965L18.8902 5.53223C18.4534 5.00549 17.805 4.70033 17.1207 4.7002H15.109C15.0508 5.04439 14.9558 5.4087 14.7926 5.75293C14.5806 6.19984 14.2393 6.6561 13.7095 6.98828C13.1823 7.31879 12.5902 7.4502 11.9996 7.4502C11.4089 7.45016 10.8169 7.31882 10.2896 6.98828C9.75993 6.65609 9.41858 6.19982 9.20662 5.75293C9.04338 5.40871 8.94836 5.04437 8.89021 4.7002H6.8785Z" fill="#FF5967"/>
</svg>
