<svg width="16" height="16" viewBox="0 0 16 16" fill="none" xmlns="http://www.w3.org/2000/svg">
<path fill-rule="evenodd" clip-rule="evenodd" d="M4.93256 1.59957C4.71126 1.82086 4.71126 2.17966 4.93256 2.40095L10.1783 7.64671C10.3169 7.78533 10.3965 7.8655 10.4502 7.92879C10.4722 7.95466 10.4831 7.97017 10.4878 7.97736C10.4913 7.99242 10.4913 8.0081 10.4878 8.02316C10.4831 8.03035 10.4722 8.04586 10.4502 8.07173C10.3965 8.13502 10.3169 8.2152 10.1783 8.35381L4.93256 13.5996C4.71126 13.8209 4.71126 14.1797 4.93256 14.401C5.15386 14.6223 5.51265 14.6223 5.73395 14.401L10.9932 9.1417C11.1136 9.02135 11.2268 8.90814 11.3142 8.8052C11.4091 8.69337 11.5064 8.55697 11.5634 8.38138C11.6439 8.13367 11.6439 7.86685 11.5634 7.61914C11.5064 7.44355 11.4091 7.30715 11.3142 7.19532C11.2268 7.09238 11.1136 6.97917 10.9932 6.85881L5.73395 1.59957C5.51265 1.37827 5.15386 1.37827 4.93256 1.59957Z" fill="var(------icon_secondary, #929296)"/>
</svg>
