<svg width="24" height="24" viewBox="0 0 24 24" fill="none" xmlns="http://www.w3.org/2000/svg">
<path fill-rule="evenodd" clip-rule="evenodd" d="M4.0579 9.17598L5.58298 6.53448C5.65148 6.41583 5.79165 6.35866 5.92359 6.39557L6.65239 6.5994C8.11061 7.00726 9.61909 6.1364 9.99508 4.66963L10.1828 3.93723C10.2168 3.80452 10.3364 3.71172 10.4734 3.71172L13.524 3.71172C13.661 3.71172 13.7805 3.80451 13.8146 3.9372L14.0025 4.67019C14.3786 6.13677 15.8869 7.00748 17.345 6.59976L18.0733 6.39611C18.2053 6.35921 18.3454 6.41638 18.4139 6.53502L19.9391 9.17674C20.0076 9.29538 19.987 9.44535 19.8891 9.54117L19.3487 10.07C18.2665 11.129 18.2665 12.8707 19.3487 13.9297L19.8894 14.4587C19.9873 14.5545 20.0079 14.7045 19.9394 14.8231L18.4143 17.4647C18.3458 17.5833 18.2056 17.6405 18.0736 17.6036L17.345 17.3998C15.8866 16.9919 14.3781 17.863 14.0022 19.3299L13.8142 20.0635C13.7802 20.1962 13.6606 20.289 13.5236 20.289L10.7239 20.289C10.5703 20.289 10.4415 20.173 10.4255 20.0201L10.3854 19.635C10.2123 17.9729 8.58621 16.8657 6.9763 17.3135L5.92401 17.6063C5.79217 17.6429 5.65222 17.5858 5.58379 17.4672L4.05763 14.8239C3.98912 14.7052 4.00971 14.5552 4.10765 14.4594L4.64897 13.9298C5.73148 12.8709 5.7315 11.1288 4.64902 10.0698L4.10792 9.54043C4.00998 9.44462 3.9894 9.29463 4.0579 9.17598ZM2.91908 10.7556C2.26619 10.1169 2.12898 9.11698 2.58566 8.32598L4.11073 5.68448C4.5674 4.8935 5.50191 4.51238 6.38149 4.7584L7.11029 4.96223C7.65037 5.11329 8.20907 4.79075 8.34832 4.2475L8.53607 3.5151C8.76285 2.63041 9.56013 2.01172 10.4734 2.01172H13.524C14.4372 2.01172 15.2344 2.63031 15.4613 3.51491L15.6493 4.24791C15.7886 4.79108 16.3472 5.11357 16.8872 4.96256L17.6155 4.75891C18.4951 4.51296 19.4295 4.89409 19.8862 5.68502L21.4114 8.32674C21.868 9.11768 21.7309 10.1175 21.0781 10.7562L20.5376 11.285C20.1368 11.6773 20.1368 12.3224 20.5377 12.7146L21.0783 13.2436C21.7311 13.8823 21.8683 14.8821 21.4116 15.6731L19.8865 18.3147C19.4298 19.1057 18.4953 19.4868 17.6157 19.2408L16.8871 19.037C16.3469 18.8859 15.7882 19.2085 15.649 19.7518L15.461 20.4854C15.2344 21.3702 14.437 21.989 13.5236 21.989L10.7239 21.989C9.69957 21.989 8.84082 21.2151 8.73468 20.1963L8.69456 19.8111C8.63043 19.1956 8.02819 18.7855 7.43193 18.9513L6.37963 19.2441C5.5007 19.4886 4.5677 19.1073 4.11155 18.3172L2.58538 15.6738C2.12869 14.8828 2.26592 13.8829 2.91884 13.2442L3.46017 12.7146C3.86109 12.3224 3.8611 11.6772 3.46018 11.285L2.91908 10.7556ZM14.5139 12.0001C14.5139 13.3882 13.3887 14.5135 12.0006 14.5135C10.6125 14.5135 9.48717 13.3882 9.48717 12.0001C9.48717 10.612 10.6125 9.48677 12.0006 9.48677C13.3887 9.48677 14.5139 10.612 14.5139 12.0001ZM16.2139 12.0001C16.2139 14.3271 14.3275 16.2135 12.0006 16.2135C9.67357 16.2135 7.78717 14.3271 7.78717 12.0001C7.78717 9.67316 9.67357 7.78677 12.0006 7.78677C14.3275 7.78677 16.2139 9.67316 16.2139 12.0001Z" fill="var(------icon_primary, #1A1A1A)"/>
</svg>
