<svg width="24" height="24" viewBox="0 0 24 24" fill="none" xmlns="http://www.w3.org/2000/svg">
<path fill-rule="evenodd" clip-rule="evenodd" d="M19.7927 15.1558C19.449 15.1869 19.1012 15.2027 18.75 15.2027C12.9307 15.2027 8.12541 10.8616 7.39585 5.24108C5.73978 6.71693 4.7 8.86395 4.7 11.2527C4.7 15.6986 8.30411 19.3027 12.75 19.3027C15.7777 19.3027 18.4182 17.6305 19.7927 15.1558ZM20.6876 13.3102C21.4494 13.1566 22.201 13.7819 21.9411 14.5143C20.5993 18.2951 16.9909 21.0027 12.75 21.0027C7.36522 21.0027 3 16.6375 3 11.2527C3 7.70481 4.89503 4.59951 7.72813 2.89378C8.31625 2.53969 9 3.06623 9 3.75272C9 9.1375 13.3652 13.5027 18.75 13.5027C19.4134 13.5027 20.0614 13.4365 20.6876 13.3102Z" fill="var(------icon_primary, #1A1A1A)"/>
</svg>
