<svg width="20" height="20" viewBox="0 0 20 20" fill="none" xmlns="http://www.w3.org/2000/svg">
<path fill-rule="evenodd" clip-rule="evenodd" d="M5.78941 1.375C4.03989 1.375 2.625 2.79671 2.625 4.54629C2.625 6.29588 4.03989 7.71759 5.78941 7.71759C7.53893 7.71759 8.95382 6.29588 8.95382 4.54629C8.95382 2.79671 7.53893 1.375 5.78941 1.375ZM4.04167 4.54629C4.04167 3.57537 4.82603 2.79167 5.78941 2.79167C6.75279 2.79167 7.53715 3.57537 7.53715 4.54629C7.53715 5.51722 6.75279 6.30092 5.78941 6.30092C4.82603 6.30092 4.04167 5.51722 4.04167 4.54629Z" fill="var(------icon_primary, #1A1A1A)"/>
<path d="M4.84495 11.8699C5.01278 10.5967 6.47467 10.1147 7.33169 10.9557L8.98585 12.5789L8.71755 12.8389C8.36443 13.1401 8.10622 13.538 7.97414 13.9833C7.83919 14.4383 7.84187 14.9232 7.98169 15.3765C8.12151 15.8298 8.39211 16.2313 8.75955 16.5304C9.12662 16.8291 9.57427 17.0128 10.046 17.0568C10.5177 17.1008 10.9916 17.003 11.4075 16.7772C11.8238 16.5511 12.1637 16.2064 12.3846 15.7866C12.6054 15.3667 12.6972 14.8906 12.6483 14.4186C12.5993 13.9469 12.4122 13.4995 12.1098 13.1341C11.8604 12.8328 11.4144 12.7913 11.1137 13.0415C10.813 13.2917 10.7714 13.7389 11.0208 14.0403C11.1443 14.1895 11.221 14.3726 11.2411 14.566C11.2611 14.759 11.2236 14.9536 11.1333 15.1252C11.0431 15.2968 10.9042 15.4375 10.7342 15.5299C10.5638 15.6224 10.3699 15.6622 10.1777 15.6443C9.98546 15.6264 9.80215 15.5514 9.65149 15.4288C9.50119 15.3064 9.39052 15.1423 9.3333 14.9568C9.27609 14.7713 9.27503 14.573 9.33018 14.3871C9.38542 14.2008 9.49446 14.0352 9.64304 13.9116L9.66366 13.8944L9.99712 13.5712L9.99991 13.5739L10.451 13.1313L10.4909 13.0926C10.4975 13.0863 10.5038 13.0798 10.5101 13.0733L12.6681 10.9557C13.5251 10.1147 14.987 10.5967 15.1549 11.8699L15.9641 18.0094C16.0153 18.3972 16.3711 18.6702 16.759 18.6191C17.1468 18.568 17.4198 18.2121 17.3687 17.8242L16.5594 11.6848C16.2465 9.31131 13.4083 8.24457 11.6759 9.94454L9.99991 11.5891L8.32392 9.94454C6.5915 8.24457 3.75329 9.31131 3.44044 11.6848L2.63116 17.8242C2.58003 18.2121 2.853 18.568 3.24085 18.6191C3.62869 18.6702 3.98455 18.3972 4.03567 18.0094L4.84495 11.8699Z" fill="var(------icon_primary, #1A1A1A)"/>
<path fill-rule="evenodd" clip-rule="evenodd" d="M11.0462 4.54629C11.0462 2.79671 12.4611 1.375 14.2106 1.375C15.9602 1.375 17.375 2.79671 17.375 4.54629C17.375 6.29588 15.9602 7.71759 14.2106 7.71759C12.4611 7.71759 11.0462 6.29588 11.0462 4.54629ZM14.2106 2.79167C13.2472 2.79167 12.4629 3.57537 12.4629 4.54629C12.4629 5.51722 13.2472 6.30092 14.2106 6.30092C15.174 6.30092 15.9584 5.51722 15.9584 4.54629C15.9584 3.57537 15.174 2.79167 14.2106 2.79167Z" fill="var(------icon_primary, #1A1A1A)"/>
</svg>
