<svg width="18" height="18" viewBox="0 0 18 18" fill="none" xmlns="http://www.w3.org/2000/svg">
<path fill-rule="evenodd" clip-rule="evenodd" d="M3.04343 6.88198L4.18723 4.90086C4.23861 4.81187 4.34374 4.769 4.44269 4.79667L4.98929 4.94955C6.08296 5.25544 7.21432 4.6023 7.49631 3.50222L7.63712 2.95292C7.66263 2.85339 7.75233 2.78379 7.85507 2.78379L10.143 2.78379C10.2457 2.78379 10.3354 2.85338 10.3609 2.9529L10.5019 3.50265C10.784 4.60257 11.9152 5.25561 13.0088 4.94982L13.555 4.79708C13.6539 4.76941 13.7591 4.81229 13.8104 4.90127L14.9543 6.88256C15.0057 6.97153 14.9903 7.08401 14.9168 7.15587L14.5115 7.55249C13.6998 8.34672 13.6999 9.65303 14.5116 10.4472L14.917 10.844C14.9905 10.9159 15.0059 11.0283 14.9545 11.1173L13.8107 13.0985C13.7593 13.1875 13.6542 13.2304 13.5552 13.2027L13.0087 13.0499C11.915 12.7439 10.7835 13.3972 10.5017 14.4974L10.3607 15.0476C10.3352 15.1472 10.2455 15.2168 10.1427 15.2168L8.04294 15.2168C7.9277 15.2168 7.83109 15.1297 7.81915 15.0151L7.78906 14.7262C7.6592 13.4797 6.43966 12.6492 5.23222 12.9851L4.443 13.2047C4.34413 13.2322 4.23916 13.1893 4.18784 13.1004L3.04322 11.1179C2.99184 11.0289 3.00728 10.9164 3.08073 10.8446L3.48673 10.4474C4.29861 9.65314 4.29863 8.34661 3.48677 7.55235L3.08094 7.15532C3.00749 7.08346 2.99205 6.97097 3.04343 6.88198ZM2.18931 8.0667C1.69964 7.58766 1.59673 6.83773 1.93925 6.24448L3.08305 4.26336C3.42555 3.67013 4.12643 3.38429 4.78612 3.5688L5.33272 3.72168C5.73778 3.83497 6.1568 3.59306 6.26124 3.18563L6.40205 2.63632C6.57214 1.9728 7.1701 1.50879 7.85507 1.50879H10.143C10.8279 1.50879 11.4258 1.97273 11.596 2.63618L11.7369 3.18593C11.8414 3.59331 12.2604 3.83518 12.6654 3.72192L13.2116 3.56918C13.8713 3.38472 14.5721 3.67057 14.9146 4.26377L16.0585 6.24506C16.401 6.83826 16.2981 7.58812 15.8086 8.06718L15.4032 8.46379C15.1026 8.75795 15.1026 9.24177 15.4032 9.53592L15.8087 9.93268C16.2983 10.4117 16.4012 11.1616 16.0587 11.7548L14.9149 13.736C14.5724 14.3293 13.8715 14.6151 13.2118 14.4306L12.6653 14.2777C12.2602 14.1644 11.8412 14.4064 11.7368 14.8139L11.5958 15.3641C11.4258 16.0277 10.8278 16.4918 10.1427 16.4918L8.04294 16.4918C7.27468 16.4918 6.63061 15.9113 6.55101 15.1472L6.52092 14.8583C6.47283 14.3967 6.02114 14.0891 5.57394 14.2135L4.78472 14.4331C4.12553 14.6164 3.42578 14.3305 3.08366 13.7379L1.93904 11.7554C1.59652 11.1621 1.69944 10.4122 2.18913 9.93314L2.59512 9.53597C2.89582 9.24181 2.89583 8.75791 2.59514 8.46374L2.18931 8.0667ZM10.8854 9.00011C10.8854 10.0412 10.0415 10.8851 9.00041 10.8851C7.95934 10.8851 7.11538 10.0412 7.11538 9.00011C7.11538 7.95904 7.95934 7.11508 9.00041 7.11508C10.0415 7.11508 10.8854 7.95904 10.8854 9.00011ZM12.1604 9.00011C12.1604 10.7453 10.7457 12.1601 9.00041 12.1601C7.25517 12.1601 5.84038 10.7453 5.84038 9.00011C5.84038 7.25487 7.25517 5.84008 9.00041 5.84008C10.7457 5.84008 12.1604 7.25487 12.1604 9.00011Z" fill="var(------overlay_surface_fg, black)" fill-opacity="0.6"/>
</svg>
