<svg width="24" height="24" viewBox="0 0 24 24" fill="none" xmlns="http://www.w3.org/2000/svg">
<path fill-rule="evenodd" clip-rule="evenodd" d="M22.7539 6.42358C23.3576 7.09764 23.9051 7.91072 23.9726 8.74436L23.9781 8.81226L23.9727 8.88017C23.8528 10.3916 22.9509 11.4351 22.0843 12.0737C21.6481 12.3952 21.2011 12.6303 20.8196 12.7885C20.4652 12.9354 20.0885 13.049 19.8015 13.062C19.6896 13.0671 19.5833 13.057 19.4844 13.0374C19.5517 13.9707 19.609 14.9912 19.6332 15.9387C19.6546 16.7756 19.6509 17.5766 19.6015 18.2172C19.577 18.5356 19.5395 18.8387 19.4804 19.097C19.4323 19.3076 19.335 19.6634 19.0815 19.9213L19.0246 19.9793L18.9576 20.0254C16.3821 21.8 13.0192 22.0266 10.337 21.7361C8.98084 21.5892 7.75178 21.3055 6.81548 20.9883C6.34912 20.8302 5.93676 20.6576 5.61066 20.4792C5.44803 20.3903 5.29088 20.2912 5.15441 20.1813C5.05108 20.0981 4.9202 19.9777 4.81614 19.8165C4.70556 19.6681 4.6597 19.521 4.64312 19.4678L4.6428 19.4668C4.60678 19.3513 4.58398 19.2295 4.56798 19.1205C4.53542 18.8986 4.51624 18.6236 4.5049 18.3256C4.48197 17.7236 4.48802 16.9369 4.51004 16.0945C4.53647 15.0832 4.58655 13.9704 4.64136 12.9608C4.46069 13.0168 4.26609 13.054 4.05935 13.0622C3.72534 13.0756 3.42624 12.955 3.21648 12.8461C2.98968 12.7285 2.76605 12.5706 2.55761 12.4003C2.13934 12.0587 1.70927 11.6072 1.33812 11.1403C0.969325 10.6763 0.627845 10.1585 0.412004 9.67463C0.30496 9.43467 0.211928 9.16598 0.177892 8.89373C0.145456 8.63429 0.15435 8.26397 0.380756 7.92867C2.17705 5.17801 4.15053 3.72216 5.73978 2.96179C6.53155 2.58296 7.22096 2.38007 7.73598 2.27352C7.99322 2.2203 8.20852 2.19078 8.37314 2.17553C8.45516 2.16793 8.52727 2.16363 8.58783 2.16195C8.62538 2.16091 8.71737 2.15851 8.80809 2.17146C9.35771 2.24998 9.78213 2.68238 9.95266 3.16962C9.95757 3.18365 9.96293 3.19954 9.96885 3.21708C10.0259 3.38619 10.1351 3.71006 10.4001 4.0224C10.6669 4.33685 11.1163 4.66603 11.9475 4.67548C12.7991 4.68515 13.2892 4.37732 13.5944 4.06381C13.9145 3.73494 14.0669 3.36405 14.1563 3.14648C14.1591 3.13976 14.1618 3.1332 14.1644 3.12678C14.2629 2.88758 14.3837 2.6869 14.5271 2.52918C14.6414 2.40357 14.8619 2.20443 15.1802 2.15896L15.2374 2.15079L15.2953 2.15044C16.0092 2.14614 16.8886 2.44097 17.7286 2.82685C18.5994 3.22687 19.5416 3.77863 20.4161 4.39702C21.2885 5.01388 22.1196 5.71531 22.7539 6.42358ZM15.6859 3.89685C16.0203 3.96744 16.4727 4.12067 17.019 4.37165C17.7826 4.72241 18.6342 5.21908 19.4346 5.78507C20.2372 6.35259 20.9625 6.97147 21.4875 7.55773C22.0025 8.1328 22.2248 8.5663 22.2706 8.82379C22.1793 9.6363 21.6867 10.255 21.0758 10.7052C20.7635 10.9353 20.4395 11.1057 20.1683 11.2182C19.9908 11.2918 19.8631 11.3296 19.7913 11.3479C19.7477 11.3197 19.6892 11.2749 19.6186 11.2106C19.439 11.0472 19.2672 10.8364 19.1709 10.6994L17.3145 8.05628L17.6294 11.2708C17.749 12.4916 17.8922 14.3568 17.9338 15.9822C17.9547 16.7976 17.9493 17.5315 17.9066 18.0866C17.885 18.3661 17.8557 18.5759 17.8232 18.7181C17.8212 18.7268 17.8193 18.7349 17.8174 18.7426C15.7468 20.0771 12.9618 20.3104 10.52 20.046C9.27929 19.9116 8.17241 19.6531 7.36105 19.3782C6.95359 19.2401 6.63919 19.1041 6.42652 18.9878C6.3456 18.9435 6.28854 18.9071 6.25093 18.8801C6.25061 18.878 6.25029 18.8758 6.24996 18.8736C6.23057 18.7415 6.21419 18.5374 6.20367 18.2609C6.18284 17.7139 6.18773 16.9702 6.20946 16.1389C6.2528 14.4809 6.3614 12.5331 6.44844 11.2452L6.67025 7.96346L4.88626 10.7269C4.82827 10.8167 4.68609 10.9921 4.49462 11.1401C4.32485 11.2713 4.17055 11.3399 4.04399 11.3586C4.03264 11.3537 4.01785 11.3467 3.99941 11.3372C3.91011 11.2908 3.78588 11.2086 3.63299 11.0837C3.3286 10.8351 2.98212 10.4765 2.66889 10.0824C2.35331 9.68543 2.1026 9.29157 1.96454 8.98207C1.91824 8.8783 1.89193 8.80009 1.87783 8.74629C3.48258 6.33053 5.18505 5.11175 6.47348 4.4953C7.13171 4.18038 7.68917 4.01921 8.08041 3.93826C8.20494 3.9125 8.312 3.89499 8.39943 3.88325C8.48922 4.13642 8.69623 4.64181 9.10378 5.12219C9.65888 5.7765 10.5595 6.35981 11.9282 6.37537C13.2766 6.39069 14.2053 5.87353 14.8126 5.24954C15.3083 4.74023 15.5665 4.18179 15.6859 3.89685Z" fill="var(------icon_primary, #1A1A1A)"/>
</svg>
