<svg width="20" height="20" viewBox="0 0 20 20" fill="none" xmlns="http://www.w3.org/2000/svg">
<path d="M13.333 1.79395C13.724 1.79412 14.0408 2.11101 14.041 2.50195V3.75H14.4414L14.6201 3.75488C16.456 3.84793 17.9156 5.36571 17.916 7.22461V13.6084L17.9121 13.7871C17.8221 15.564 16.397 16.9891 14.6201 17.0791L14.4414 17.083H5.55762C3.69857 17.0828 2.18094 15.6231 2.08789 13.7871L2.08301 13.6084V7.22461C2.08339 5.30588 3.63885 3.75021 5.55762 3.75H5.95801V2.50195C5.95818 2.1109 6.27492 1.79395 6.66602 1.79395C7.05711 1.79395 7.37385 2.1109 7.37402 2.50195V3.75H12.624V2.50195C12.6242 2.1109 12.9419 1.79395 13.333 1.79395ZM5.55762 5.16699C4.42125 5.1672 3.50039 6.08828 3.5 7.22461V13.6084C3.50004 14.745 4.42103 15.6668 5.55762 15.667H14.4414C15.5781 15.667 16.5 14.7451 16.5 13.6084V7.22461C16.4996 6.08817 15.5779 5.16703 14.4414 5.16699H5.55762ZM13.2578 7.40918C13.5389 7.13744 13.9869 7.14485 14.2588 7.42578C14.5307 7.70691 14.5232 8.15477 14.2422 8.42676L9.50391 13.0107C9.22939 13.2762 8.79317 13.2761 8.51855 13.0107L5.75781 10.3418C5.47691 10.07 5.46884 9.62205 5.74023 9.34082C6.01202 9.05978 6.46093 9.05171 6.74219 9.32324L9.00977 11.5156L13.2578 7.40918Z" fill="var(------icon_allwhite_primary, white)"/>
</svg>
