<svg width="20" height="20" viewBox="0 0 20 20" fill="none" xmlns="http://www.w3.org/2000/svg">
<path d="M16.2915 11.7705C16.6827 11.7705 16.9995 12.0873 16.9995 12.4785V14.708H19.2573C19.6484 14.7081 19.9653 15.0249 19.9653 15.416C19.9653 15.8072 19.6484 16.1239 19.2573 16.124H16.9995V18.4785C16.9995 18.8697 16.6827 19.1865 16.2915 19.1865C15.9005 19.1863 15.5836 18.8696 15.5835 18.4785V16.124H13.2573C12.8661 16.124 12.5493 15.8072 12.5493 15.416C12.5493 15.0248 12.8661 14.708 13.2573 14.708H15.5835V12.4785C15.5835 12.0874 15.9005 11.7707 16.2915 11.7705ZM9.99951 1.66602C14.6018 1.66602 18.3333 5.3968 18.3335 9.99902L18.3228 10.416H16.9028C16.911 10.278 16.9165 10.1391 16.9165 9.99902C16.9163 6.1792 13.8194 3.08301 9.99951 3.08301C6.1798 3.08318 3.08367 6.17931 3.0835 9.99902C3.0835 13.8189 6.17969 16.9158 9.99951 16.916C10.5744 16.916 11.1325 16.8441 11.6665 16.7119V18.165C11.1278 18.2744 10.5705 18.333 9.99951 18.333L9.5708 18.3223C5.1678 18.099 1.6665 14.4575 1.6665 9.99902C1.66668 5.39691 5.3974 1.66619 9.99951 1.66602ZM12.3804 11.374C12.5758 11.0356 13.0095 10.9194 13.3481 11.1143C13.6869 11.3098 13.8034 11.7433 13.6079 12.082C13.2422 12.7153 12.7158 13.2418 12.0825 13.6074C11.4494 13.9728 10.7305 14.165 9.99951 14.165C9.2684 14.1649 8.5487 13.973 7.91553 13.6074C7.28254 13.2418 6.75665 12.7151 6.39111 12.082C6.19602 11.7435 6.31171 11.3099 6.6499 11.1143C6.98853 10.9188 7.42194 11.0356 7.61768 11.374C7.8589 11.7917 8.20687 12.1386 8.62451 12.3799C9.0423 12.6211 9.51711 12.7489 9.99951 12.749C10.4819 12.749 10.9567 12.621 11.3745 12.3799C11.7922 12.1387 12.1391 11.7916 12.3804 11.374ZM7.49951 5.95801C7.89071 5.95801 8.2085 6.27481 8.2085 6.66602V8.66602C8.20845 9.05702 7.89144 9.37376 7.50049 9.37402C7.10931 9.37402 6.79252 9.05718 6.79248 8.66602V6.66602C6.79248 6.27498 7.10853 5.95827 7.49951 5.95801ZM12.4995 5.95801C12.8907 5.95801 13.2085 6.27481 13.2085 6.66602V8.66602C13.2085 9.05702 12.8914 9.37376 12.5005 9.37402C12.1093 9.37402 11.7925 9.05718 11.7925 8.66602V6.66602C11.7925 6.27498 12.1085 5.95827 12.4995 5.95801Z" fill="var(------icon_allwhite_primary, white)"/>
</svg>
