<svg width="20" height="20" viewBox="0 0 20 20" fill="none" xmlns="http://www.w3.org/2000/svg">
<path fill-rule="evenodd" clip-rule="evenodd" d="M10.8978 1.88944C11.5627 2.27825 12.1296 2.91474 12.4148 3.86709C12.6382 3.94761 12.8566 4.03819 13.0697 4.13828C13.8341 3.23307 15.3097 2.08239 17.3205 2.13695C17.6729 2.14651 17.995 2.33787 18.1719 2.64297C18.6228 3.42075 19.0827 4.63809 19.0387 5.92934C18.9976 7.13259 18.5154 8.37649 17.2604 9.32561C17.3851 9.87103 17.4508 10.4383 17.4508 11.02C17.4508 15.223 14.03 18.625 9.8166 18.625C5.60319 18.625 2.18242 15.223 2.18242 11.02C2.18242 10.4293 2.25017 9.85353 2.37858 9.30038C1.30646 8.38494 0.953237 7.1517 0.958306 5.99585C0.963866 4.72793 1.39343 3.50102 1.8042 2.7013C1.98507 2.34915 2.35362 2.1328 2.75146 2.14934C4.60855 2.22656 6.09604 3.23581 6.88663 3.99554C7.19404 3.86817 7.51162 3.76021 7.83782 3.67322C7.90788 3.40192 7.92648 3.04473 7.86078 2.7586C7.79478 2.47121 7.83849 2.16153 7.98276 1.90602C8.13336 1.63932 8.43367 1.37874 8.86361 1.37515C9.45889 1.37017 10.2123 1.48851 10.8978 1.88944ZM9.07485 4.42412C9.27118 3.97073 9.35578 3.37242 9.30212 2.81944C9.60146 2.86111 9.90937 2.95249 10.1827 3.11232C10.5688 3.33814 10.9208 3.71872 11.0907 4.39339C11.1775 4.73799 11.4331 5.031 11.7895 5.14957C12.1877 5.28207 12.568 5.45367 12.926 5.65985C14.2802 6.4399 15.3103 7.71302 15.77 9.22918C15.9416 9.79525 16.0341 10.3963 16.0341 11.02C16.0341 11.604 15.9528 12.1691 15.8008 12.7049L15.1574 10.6785C15.0395 10.3072 14.6657 10.0799 14.2817 10.1461L10.5448 10.7904L10.9115 10.0571C11.2241 9.43189 10.6195 8.74287 9.95896 8.97153L5.51738 10.509C5.274 10.5932 5.08792 10.7922 5.02016 11.0407L4.26509 13.8093C3.83904 12.9709 3.59909 12.0232 3.59909 11.02C3.59909 10.3963 3.69159 9.79525 3.86323 9.22918C4.35937 7.59285 5.51988 6.23985 7.03444 5.48418C7.4563 5.2737 7.90546 5.10966 8.37526 4.99872C8.63618 4.9371 8.9297 4.75929 9.07485 4.42412ZM5.32672 15.3008C6.458 16.4761 8.05072 17.2083 9.8166 17.2083C11.9232 17.2083 13.7833 16.1663 14.9077 14.5732L13.9752 11.6365L9.54442 12.4004C8.91443 12.5091 8.42859 11.8551 8.71449 11.2833L8.94538 10.8215L6.29846 11.7378L5.32672 15.3008ZM16.7711 7.879C16.2228 6.67593 15.3697 5.64125 14.3107 4.87189C14.8752 4.27433 15.8343 3.59948 17.0561 3.55421C17.3741 4.17041 17.652 5.02708 17.6228 5.88102C17.5993 6.57087 17.3782 7.27254 16.7711 7.879ZM2.37496 6.00207C2.37208 6.65907 2.51737 7.2783 2.90036 7.79642C3.49023 6.54244 4.41305 5.47616 5.55486 4.70955C4.9464 4.22314 4.02526 3.69739 2.95023 3.58377C2.64954 4.23953 2.37878 5.13032 2.37496 6.00207Z" fill="var(------text_allwhite_primary, white)"/>
</svg>
