<svg width="20" height="20" viewBox="0 0 20 20" fill="none" xmlns="http://www.w3.org/2000/svg">
<path d="M14.9345 3.9345C15.2469 3.62209 15.7529 3.6221 16.0654 3.9345C16.3778 4.24692 16.3778 4.75294 16.0654 5.06536L11.1308 9.99993L16.0654 14.9345C16.3778 15.2469 16.3778 15.7529 16.0654 16.0654C15.7529 16.3778 15.2469 16.3778 14.9345 16.0654L9.99993 11.1308L5.06536 16.0654C4.75294 16.3778 4.24692 16.3778 3.9345 16.0654C3.6221 15.7529 3.62209 15.2469 3.9345 14.9345L8.86907 9.99993L3.9345 5.06536C3.6221 4.75294 3.62209 4.24692 3.9345 3.9345C4.24692 3.62209 4.75294 3.6221 5.06536 3.9345L9.99993 8.86907L14.9345 3.9345Z" fill="var(------text_allwhite_primary, white)"/>
</svg>
