<svg width="428" height="237" viewBox="0 0 428 237" fill="none" xmlns="http://www.w3.org/2000/svg">
<g filter="url(#filter0_d_5369_13786)">
<path d="M8 28C8 18.0589 16.0589 10 26 10L402 10C411.941 10 420 18.0589 420 28V205C420 214.941 411.941 223 402 223H26.0001C16.0589 223 8.00006 214.941 8.00005 205L8 28Z" fill="white"/>
<path d="M26 10.5H402C411.665 10.5 419.5 18.335 419.5 28V205C419.5 214.665 411.665 222.5 402 222.5H26C16.335 222.5 8.5 214.665 8.5 205V28C8.5 18.335 16.335 10.5 26 10.5Z" stroke="var(--------border_light, black)" stroke-opacity="0.05"/>
</g>
<defs>
<filter id="filter0_d_5369_13786" x="-4" y="0" width="436" height="237" filterUnits="userSpaceOnUse" color-interpolation-filters="sRGB">
<feFlood flood-opacity="0" result="BackgroundImageFix"/>
<feColorMatrix in="SourceAlpha" type="matrix" values="0 0 0 0 0 0 0 0 0 0 0 0 0 0 0 0 0 0 127 0" result="hardAlpha"/>
<feOffset dy="2"/>
<feGaussianBlur stdDeviation="6"/>
<feComposite in2="hardAlpha" operator="out"/>
<feColorMatrix type="matrix" values="0 0 0 0 0 0 0 0 0 0 0 0 0 0 0 0 0 0 0.08 0"/>
<feBlend mode="normal" in2="BackgroundImageFix" result="effect1_dropShadow_5369_13786"/>
<feBlend mode="normal" in="SourceGraphic" in2="effect1_dropShadow_5369_13786" result="shape"/>
</filter>
</defs>
</svg>
