<svg width="5" height="5" viewBox="0 0 5 5" fill="none" xmlns="http://www.w3.org/2000/svg">
<path d="M2.00942 0.111827C2.06459 -0.0372864 2.2755 -0.0372866 2.33067 0.111827L2.70961 1.13589C2.7944 1.36503 2.97506 1.54569 3.2042 1.63048L4.22826 2.00942C4.37737 2.06459 4.37737 2.2755 4.22826 2.33067L3.2042 2.70961C2.97506 2.7944 2.7944 2.97506 2.70961 3.2042L2.33067 4.22826C2.2755 4.37737 2.06459 4.37737 2.00942 4.22826L1.63048 3.2042C1.54569 2.97506 1.36503 2.7944 1.13589 2.70961L0.111827 2.33067C-0.0372864 2.2755 -0.0372866 2.06459 0.111827 2.00942L1.13589 1.63048C1.36503 1.54569 1.54569 1.36503 1.63048 1.13589L2.00942 0.111827Z" fill="white"/>
</svg>
