<svg width="20" height="20" viewBox="0 0 20 20" fill="none" xmlns="http://www.w3.org/2000/svg">
<path d="M9.58889 1.66945C9.81484 1.44352 10.1813 1.44351 10.4072 1.66945L12.5781 3.83937H15.6006C15.9211 3.83947 16.1797 4.09893 16.1797 4.41945V7.43996L18.3291 9.58937C18.555 9.81726 18.555 10.1838 18.3291 10.4097L16.1797 12.5591V15.6206C16.1795 15.939 15.919 16.1996 15.6006 16.1997H12.5391L10.4092 18.3296C10.1833 18.5555 9.8168 18.5554 9.59084 18.3296L7.45998 16.1997H4.39943C4.07898 16.1997 3.82054 15.941 3.82033 15.6206V12.5601L1.66896 10.4097C1.44302 10.1837 1.44304 9.81728 1.66896 9.59133L3.82033 7.43898V4.41945C3.82033 4.09887 4.07885 3.83937 4.39943 3.83937H7.41994L9.58889 1.66945Z" fill="url(#paint0_linear_5369_13834)"/>
<mask id="mask0_5369_13834" style="mask-type:alpha" maskUnits="userSpaceOnUse" x="1" y="1" width="18" height="18">
<path d="M9.58889 1.66945C9.81484 1.44352 10.1813 1.44351 10.4072 1.66945L12.5781 3.83937H15.6006C15.9211 3.83947 16.1797 4.09893 16.1797 4.41945V7.43996L18.3291 9.58937C18.555 9.81726 18.555 10.1838 18.3291 10.4097L16.1797 12.5591V15.6206C16.1795 15.939 15.919 16.1996 15.6006 16.1997H12.5391L10.4092 18.3296C10.1833 18.5555 9.8168 18.5554 9.59084 18.3296L7.45998 16.1997H4.39943C4.07898 16.1997 3.82054 15.941 3.82033 15.6206V12.5601L1.66896 10.4097C1.44302 10.1837 1.44304 9.81728 1.66896 9.59133L3.82033 7.43898V4.41945C3.82033 4.09887 4.07885 3.83937 4.39943 3.83937H7.41994L9.58889 1.66945Z" fill="url(#paint1_linear_5369_13834)"/>
</mask>
<g mask="url(#mask0_5369_13834)">
<g opacity="0.6" filter="url(#filter0_f_5369_13834)">
<circle cx="9.53964" cy="9.54306" r="3.4161" fill="white"/>
</g>
<circle opacity="0.54" cx="14.0939" cy="15.9885" r="8.32244" fill="url(#paint2_linear_5369_13834)"/>
</g>
<circle opacity="0.78" cx="9.99989" cy="10.0004" r="4.33314" stroke="url(#paint3_linear_5369_13834)" stroke-width="0.72119"/>
<defs>
<filter id="filter0_f_5369_13834" x="4.06299" y="4.06641" width="10.9534" height="10.9531" filterUnits="userSpaceOnUse" color-interpolation-filters="sRGB">
<feFlood flood-opacity="0" result="BackgroundImageFix"/>
<feBlend mode="normal" in="SourceGraphic" in2="BackgroundImageFix" result="shape"/>
<feGaussianBlur stdDeviation="1.03027" result="effect1_foregroundBlur_5369_13834"/>
</filter>
<linearGradient id="paint0_linear_5369_13834" x1="17.317" y1="16.619" x2="7.48382" y2="3.86473" gradientUnits="userSpaceOnUse">
<stop stop-color="#FFA93F"/>
<stop offset="1" stop-color="#FFDF82"/>
</linearGradient>
<linearGradient id="paint1_linear_5369_13834" x1="9.99902" y1="1.5" x2="9.99902" y2="18.499" gradientUnits="userSpaceOnUse">
<stop stop-color="#FDBE12"/>
<stop offset="1" stop-color="#FFE082"/>
</linearGradient>
<linearGradient id="paint2_linear_5369_13834" x1="9.08532" y1="9.47351" x2="12.1015" y2="13.6549" gradientUnits="userSpaceOnUse">
<stop stop-color="#FD9C01"/>
<stop offset="0.59413" stop-color="#FDB83A" stop-opacity="0"/>
</linearGradient>
<linearGradient id="paint3_linear_5369_13834" x1="8.16772" y1="6.1027" x2="12.5658" y2="13.6527" gradientUnits="userSpaceOnUse">
<stop stop-color="#FFBA37"/>
<stop offset="1" stop-color="#F37500"/>
</linearGradient>
</defs>
</svg>
