<svg width="20" height="20" viewBox="0 0 20 20" fill="none" xmlns="http://www.w3.org/2000/svg">
<path d="M9.47045 2.69811C9.71061 2.29904 10.2892 2.29904 10.5293 2.69811L12.8141 6.49465C12.9004 6.63802 13.0411 6.74027 13.2041 6.77802L17.5209 7.77779C17.9747 7.88288 18.1534 8.43312 17.8481 8.78485L14.9434 12.131C14.8338 12.2574 14.78 12.4228 14.7945 12.5895L15.1776 17.004C15.2178 17.468 14.7498 17.808 14.3209 17.6263L10.2409 15.8978C10.0869 15.8326 9.91291 15.8326 9.75884 15.8978L5.67885 17.6263C5.24999 17.808 4.78193 17.468 4.8222 17.004L5.20531 12.5895C5.21978 12.4228 5.16603 12.2574 5.05634 12.131L2.15165 8.78485C1.84633 8.43312 2.02511 7.88288 2.47886 7.77779L6.79563 6.77802C6.95864 6.74027 7.09937 6.63802 7.18565 6.49465L9.47045 2.69811Z" fill="url(#paint0_linear_5369_13855)"/>
<mask id="mask0_5369_13855" style="mask-type:alpha" maskUnits="userSpaceOnUse" x="2" y="2" width="16" height="16">
<path d="M9.47045 2.69811C9.71061 2.29904 10.2892 2.29904 10.5293 2.69811L12.8141 6.49465C12.9004 6.63802 13.0411 6.74027 13.2041 6.77802L17.5209 7.77779C17.9747 7.88288 18.1534 8.43312 17.8481 8.78485L14.9434 12.131C14.8338 12.2574 14.78 12.4228 14.7945 12.5895L15.1776 17.004C15.2178 17.468 14.7498 17.808 14.3209 17.6263L10.2409 15.8978C10.0869 15.8326 9.91291 15.8326 9.75884 15.8978L5.67885 17.6263C5.24999 17.808 4.78193 17.468 4.8222 17.004L5.20531 12.5895C5.21978 12.4228 5.16603 12.2574 5.05634 12.131L2.15165 8.78485C1.84633 8.43312 2.02511 7.88288 2.47886 7.77779L6.79563 6.77802C6.95864 6.74027 7.09937 6.63802 7.18565 6.49465L9.47045 2.69811Z" fill="url(#paint1_linear_5369_13855)"/>
</mask>
<g mask="url(#mask0_5369_13855)">
<circle opacity="0.6" cx="16.1157" cy="18.6787" r="11.4072" fill="url(#paint2_linear_5369_13855)"/>
</g>
<defs>
<linearGradient id="paint0_linear_5369_13855" x1="9.99989" y1="-2.67614" x2="6.97895" y2="15.6828" gradientUnits="userSpaceOnUse">
<stop offset="0.0842738" stop-color="#FD9C00"/>
<stop offset="0.813387" stop-color="#FFE69B"/>
</linearGradient>
<linearGradient id="paint1_linear_5369_13855" x1="9.99989" y1="1.81836" x2="7.12895" y2="19.2656" gradientUnits="userSpaceOnUse">
<stop offset="0.0842738" stop-color="#FD9C00"/>
<stop offset="0.977469" stop-color="#FFE69B"/>
</linearGradient>
<linearGradient id="paint2_linear_5369_13855" x1="9.25062" y1="9.74894" x2="12.275" y2="15.4196" gradientUnits="userSpaceOnUse">
<stop stop-color="#FFA909"/>
<stop offset="0.75961" stop-color="#FDB83A" stop-opacity="0"/>
</linearGradient>
</defs>
</svg>
