<svg width="12" height="12" viewBox="0 0 12 12" fill="none" xmlns="http://www.w3.org/2000/svg">
<path fill-rule="evenodd" clip-rule="evenodd" d="M3.6996 1.19967C3.53363 1.36565 3.53363 1.63474 3.6996 1.80072L7.63392 5.73503C7.73788 5.83899 7.79755 5.89913 7.83784 5.94659C7.85432 5.966 7.86251 5.97763 7.86602 5.98302C7.86868 5.99432 7.86868 6.00608 7.86602 6.01737C7.86251 6.02277 7.85432 6.03439 7.83784 6.0538C7.79755 6.10127 7.73788 6.1614 7.63392 6.26536L3.6996 10.1997C3.53363 10.3656 3.53363 10.6347 3.6996 10.8007C3.86558 10.9667 4.13467 10.9667 4.30064 10.8007L8.24508 6.85628C8.33537 6.76601 8.42029 6.6811 8.48583 6.6039C8.55703 6.52003 8.62996 6.41773 8.67274 6.28604C8.73311 6.10026 8.73311 5.90014 8.67274 5.71436C8.62996 5.58266 8.55703 5.48037 8.48583 5.39649C8.42029 5.31929 8.33536 5.23438 8.24508 5.14411L4.30064 1.19967C4.13467 1.0337 3.86558 1.0337 3.6996 1.19967Z" fill="var(------icon_primary, #1A1A1A)"/>
</svg>
