<svg width="16" height="16" viewBox="0 0 16 16" fill="none" xmlns="http://www.w3.org/2000/svg">
<path fill-rule="evenodd" clip-rule="evenodd" d="M4.00002 5.43327C2.58249 5.43327 1.43335 6.5824 1.43335 7.99994V11.9999C1.43335 13.4175 2.58249 14.5666 4.00002 14.5666H4.90002V14.5657H10.0639C11.8535 14.5657 13.4135 13.3477 13.8475 11.6116L14.595 8.62154C15 7.0016 13.7748 5.43237 12.105 5.43237H10.0455L10.4856 3.52552C10.7779 2.25859 10.0592 0.977047 8.82569 0.56588C8.38259 0.41818 7.89757 0.611646 7.67777 1.02377L5.543 5.02648C5.40975 5.27631 5.14966 5.43236 4.86652 5.43236L4.33205 5.43235C4.32127 5.43235 4.31053 5.43266 4.29982 5.43327H4.00002ZM3.76538 13.4142V6.58571C3.08539 6.69768 2.56668 7.28823 2.56668 7.99994V11.9999C2.56668 12.7116 3.08539 13.3022 3.76538 13.4142ZM4.90002 6.5654C5.58867 6.55331 6.21805 6.16909 6.543 5.55981L8.6043 1.69486C9.19865 1.9652 9.53107 2.62143 9.38125 3.27068L8.78103 5.87161C8.7422 6.03988 8.78222 6.21667 8.88973 6.35181C8.99723 6.48695 9.1605 6.5657 9.33319 6.5657H12.105C13.0375 6.5657 13.7217 7.44202 13.4955 8.34667L12.748 11.3367C12.4401 12.5683 11.3335 13.4323 10.0639 13.4323H4.90002V6.5654Z" fill="var(------icon_primary, #1A1A1A)"/>
</svg>
