<svg width="24" height="24" viewBox="0 0 24 24" fill="none" xmlns="http://www.w3.org/2000/svg">
<path d="M18.2195 3.43457C20.4841 3.54917 22.2849 5.42175 22.2849 7.71484V16.2861L22.2791 16.5068C22.1677 18.6982 20.4109 20.4555 18.2195 20.5664L17.9998 20.5713H5.99976L5.77905 20.5664C3.58768 20.4555 1.83079 18.6981 1.71948 16.5068L1.71362 16.2861V7.71484C1.71362 5.42179 3.5145 3.54923 5.77905 3.43457L5.99976 3.42871H17.9998L18.2195 3.43457ZM16.3767 12.7793C15.6854 12.088 14.5575 12.1108 13.8943 12.8291L10.616 16.3799C10.304 16.7178 9.7927 16.7792 9.40991 16.5244L8.57007 15.9639C7.91282 15.5257 7.04127 15.5917 6.45679 16.123L4.21851 18.1562C4.68247 18.598 5.30852 18.8711 5.99976 18.8711H17.9998C19.2127 18.8709 20.2268 18.0349 20.5056 16.9082L16.3767 12.7793ZM5.99976 5.12891C4.5717 5.12891 3.41382 6.28679 3.41382 7.71484V16.2861C3.41383 16.3839 3.41985 16.4803 3.43042 16.5752L5.31323 14.8652C6.47491 13.8092 8.20615 13.679 9.51245 14.5498L9.8103 14.7471L12.6453 11.6758C13.9632 10.2484 16.2039 10.2036 17.5779 11.5771L20.5847 14.584V7.71484C20.5847 6.28694 19.4276 5.12914 17.9998 5.12891H5.99976ZM8.40015 6.42871C9.82026 6.42871 10.9714 7.5799 10.9714 9C10.9714 10.4202 9.82031 11.5713 8.40015 11.5713C6.98005 11.5712 5.82886 10.4201 5.82886 9C5.82893 7.57995 6.9801 6.42879 8.40015 6.42871ZM8.40015 7.72852C7.69807 7.72859 7.12874 8.29792 7.12866 9C7.12866 9.70214 7.69802 10.2714 8.40015 10.2715C9.10234 10.2715 9.67163 9.70219 9.67163 9C9.67156 8.29787 9.10229 7.72852 8.40015 7.72852Z" fill="#FFCD00"/>
</svg>
