<svg width="24" height="24" viewBox="0 0 24 24" fill="none" xmlns="http://www.w3.org/2000/svg">
<path d="M11.7289 7.57144C11.8374 7.34287 12.1626 7.34287 12.2711 7.57144L13.1257 9.3733C13.1698 9.4662 13.2584 9.53006 13.3604 9.54252L15.3557 9.78609C15.6096 9.81708 15.7107 10.1312 15.5226 10.3045L14.0594 11.6523C13.9827 11.7229 13.9482 11.8283 13.9683 11.9307L14.3492 13.8731C14.3981 14.1224 14.1343 14.3159 13.9112 14.1943L12.1436 13.2308C12.0541 13.182 11.9459 13.182 11.8564 13.2308L10.0888 14.1943C9.86569 14.3159 9.6019 14.1224 9.65079 13.8731L10.0317 11.9307C10.0518 11.8283 10.0173 11.7229 9.94057 11.6523L8.47744 10.3045C8.2893 10.1312 8.39044 9.81708 8.64434 9.78609L10.6396 9.54252C10.7416 9.53006 10.8302 9.4662 10.8743 9.3733L11.7289 7.57144Z" stroke="#0099FF" stroke-width="1.2"/>
<path d="M7.2002 2.73926H16.7998C18.6638 2.73926 20.1748 4.2503 20.1748 6.11426V18.3281C20.1748 19.9287 18.5042 20.9811 17.0605 20.29L12.3564 18.0381L12 17.8682L11.6436 18.0381L6.93945 20.29C5.49578 20.9811 3.8252 19.9287 3.8252 18.3281V6.11426C3.8252 4.2503 5.33624 2.73926 7.2002 2.73926Z" stroke="#0099FF" stroke-width="1.65"/>
</svg>
