<svg width="24" height="24" viewBox="0 0 24 24" fill="none" xmlns="http://www.w3.org/2000/svg">
<path d="M17 3.05273C19.7614 3.05273 22 5.29131 22 8.05273V15.9473C22 18.7087 19.7614 20.9473 17 20.9473H7C4.23858 20.9473 2 18.7087 2 15.9473V8.05273C2 5.29131 4.23858 3.05273 7 3.05273H17ZM7 4.75293C5.17746 4.75293 3.7002 6.23019 3.7002 8.05273V15.9473C3.7002 17.7698 5.17746 19.2471 7 19.2471H17C18.8225 19.2471 20.2998 17.7698 20.2998 15.9473V15.3516H14.5C12.6498 15.3516 11.1504 13.8521 11.1504 12.002C11.1504 10.1518 12.6498 8.65234 14.5 8.65234H20.2998V8.05273C20.2998 6.2302 18.8225 4.75293 17 4.75293H7ZM14.5 10.3516C13.5887 10.3516 12.8496 11.0907 12.8496 12.002C12.8496 12.9132 13.5887 13.6523 14.5 13.6523H20.2998V10.3516H14.5Z" fill="var(------feedback_normal, #0099FF)"/>
</svg>
