<svg width="24" height="24" viewBox="0 0 24 24" fill="none" xmlns="http://www.w3.org/2000/svg">
<g clip-path="url(#clip0_5354_321543)">
<path d="M11.9998 18.4648C12.4691 18.4648 12.8501 18.8452 12.8503 19.3145V22.3145C12.8503 22.7839 12.4692 23.165 11.9998 23.165C11.5304 23.1649 11.1501 22.7838 11.1501 22.3145V19.3145C11.1503 18.8452 11.5305 18.4649 11.9998 18.4648ZM16.7029 16.5166C17.0348 16.1847 17.5731 16.1847 17.905 16.5166L20.0261 18.6377C20.3579 18.9697 20.358 19.5079 20.0261 19.8398C19.6942 20.1717 19.1559 20.1717 18.824 19.8398L16.7029 17.7188C16.3709 17.3868 16.3709 16.8485 16.7029 16.5166ZM6.09546 16.5156C6.42731 16.1838 6.96564 16.184 7.29761 16.5156C7.62955 16.8476 7.62955 17.3858 7.29761 17.7178L5.17651 19.8389C4.84457 20.1708 4.30631 20.1708 3.97437 19.8389C3.64279 19.507 3.64279 18.9696 3.97437 18.6377L6.09546 16.5156ZM11.9998 6.31445C15.0372 6.31445 17.4996 8.77705 17.4998 11.8145C17.4998 14.852 15.0373 17.3145 11.9998 17.3145C8.9623 17.3143 6.49976 14.8519 6.49976 11.8145C6.49995 8.77714 8.96242 6.31459 11.9998 6.31445ZM11.9998 8.01465C9.90131 8.01478 8.20015 9.71602 8.19995 11.8145C8.19995 13.9131 9.90119 15.6151 11.9998 15.6152C14.0984 15.6152 15.7996 13.9131 15.7996 11.8145C15.7994 9.71594 14.0983 8.01465 11.9998 8.01465ZM4.49976 10.9648C4.96916 10.9648 5.35028 11.3451 5.35034 11.8145C5.35034 12.2839 4.9692 12.665 4.49976 12.665H1.49976C1.03049 12.6648 0.650146 12.2838 0.650146 11.8145C0.650209 11.3452 1.03053 10.9651 1.49976 10.9648H4.49976ZM22.4998 10.9648C22.9692 10.9648 23.3503 11.3451 23.3503 11.8145C23.3503 12.2839 22.9692 12.665 22.4998 12.665H19.4998C19.0305 12.6648 18.6501 12.2838 18.6501 11.8145C18.6502 11.3452 19.0305 10.9651 19.4998 10.9648H22.4998ZM3.97437 3.78809C4.30625 3.45625 4.84457 3.45634 5.17651 3.78809L7.29761 5.91016C7.62946 6.24209 7.62948 6.77941 7.29761 7.11133C6.96566 7.44327 6.4274 7.44327 6.09546 7.11133L3.97437 4.99023C3.6426 4.65827 3.64248 4.11997 3.97437 3.78809ZM18.824 3.78809C19.1559 3.45617 19.6942 3.45615 20.0261 3.78809C20.3579 4.12003 20.358 4.65834 20.0261 4.99023L17.905 7.11133C17.5731 7.44322 17.0348 7.44311 16.7029 7.11133C16.3709 6.77938 16.3709 6.24113 16.7029 5.90918L18.824 3.78809ZM11.9998 0.464844C12.4691 0.464844 12.8501 0.845191 12.8503 1.31445V4.31445C12.8503 4.7839 12.4692 5.16504 11.9998 5.16504C11.5304 5.16493 11.1501 4.78383 11.1501 4.31445V1.31445C11.1504 0.845256 11.5305 0.464949 11.9998 0.464844Z" fill="var(------icon_primary, #1A1A1A)"/>
</g>
<defs>
<clipPath id="clip0_5354_321543">
<rect width="24" height="24" fill="white"/>
</clipPath>
</defs>
</svg>
