<svg width="20" height="20" viewBox="0 0 20 20" fill="none" xmlns="http://www.w3.org/2000/svg">
<path fill-rule="evenodd" clip-rule="evenodd" d="M9.07579 2.83966C9.07579 2.32955 9.48932 1.91602 9.99943 1.91602C10.5095 1.91602 10.9231 2.32955 10.9231 2.83966V3.18891C10.9231 3.20811 10.9225 3.22718 10.9213 3.2461C13.6352 3.69227 15.4064 6.09235 15.4064 8.87881V11.6405L17.0832 13.8237C17.1164 13.8669 17.1445 13.9137 17.1669 13.9633C17.5854 14.8889 16.9005 15.9219 15.8971 15.9219H4.10088C3.09745 15.9219 2.41259 14.8889 2.83109 13.9633C2.85353 13.9137 2.88163 13.8668 2.91482 13.8236L4.59067 11.6424V8.8788C4.59067 6.0916 6.36213 3.69071 9.0775 3.24566C9.07636 3.22689 9.07579 3.20796 9.07579 3.18891V2.83966ZM9.99807 4.58854C7.66812 4.58854 6.00734 6.44854 6.00734 8.8788V11.8831C6.00734 12.0392 5.95579 12.1909 5.86069 12.3147L4.17766 14.5052H15.8204L14.1363 12.3126C14.0412 12.1889 13.9897 12.0372 13.9897 11.8811V8.87881C13.9897 6.44873 12.3282 4.58854 9.99807 4.58854Z" fill="var(------icon_primary, #1A1A1A)"/>
<path d="M7.4022 16.8558C7.35044 16.7396 7.4408 16.616 7.56797 16.616H12.4353C12.5625 16.616 12.6528 16.7396 12.6011 16.8558C12.1957 17.7654 11.1847 18.4099 10.0016 18.4099C8.81859 18.4099 7.80758 17.7654 7.4022 16.8558Z" fill="var(------icon_primary, #1A1A1A)"/>
</svg>
