<svg width="16" height="16" viewBox="0 0 16 16" fill="none" xmlns="http://www.w3.org/2000/svg">
<path fill-rule="evenodd" clip-rule="evenodd" d="M7.19389 4.27933C6.15163 3.10679 4.34909 3.0204 3.19948 4.0879C2.176 5.03827 2.0103 6.59792 2.81124 7.74213L2.87856 7.83831C3.2493 8.36793 3.66561 8.86414 4.12275 9.32128L7.92924 13.1278C7.9683 13.1668 8.03161 13.1668 8.07066 13.1278L11.8772 9.32128C12.3343 8.86414 12.7506 8.36793 13.1213 7.8383L13.1887 7.74213C13.9896 6.59792 13.8239 5.03827 12.8004 4.0879C11.6508 3.0204 9.84828 3.10679 8.80602 4.27933L7.99995 5.18615L7.19389 4.27933ZM7.99995 3.48096C6.52957 1.87671 4.02867 1.77134 2.4283 3.2574C0.990181 4.59279 0.75735 6.7843 1.88278 8.39205L1.9501 8.48823C2.3587 9.07195 2.81754 9.61884 3.32136 10.1227L7.12786 13.9292C7.6095 14.4108 8.39041 14.4108 8.87205 13.9292L12.6785 10.1227C13.1824 9.61884 13.6412 9.07195 14.0498 8.48823L14.1171 8.39205C15.2426 6.7843 15.0097 4.59279 13.5716 3.2574C11.9712 1.77134 9.47034 1.87671 7.99995 3.48096Z" fill="var(------icon_primary_light, #6B6B70)"/>
</svg>
