<svg width="18" height="18" viewBox="0 0 18 18" fill="none" xmlns="http://www.w3.org/2000/svg">
<path fill-rule="evenodd" clip-rule="evenodd" d="M5.36243 5.6248C5.36243 3.61587 6.99099 1.9873 8.99993 1.9873C11.0089 1.9873 12.6374 3.61587 12.6374 5.6248C12.6374 7.63374 11.0089 9.26231 8.99993 9.26231C6.99099 9.26231 5.36243 7.63374 5.36243 5.6248ZM8.99993 3.2623C7.69515 3.2623 6.63743 4.32003 6.63743 5.6248C6.63743 6.92958 7.69515 7.9873 8.99993 7.9873C10.3047 7.9873 11.3624 6.92958 11.3624 5.6248C11.3624 4.32003 10.3047 3.2623 8.99993 3.2623Z" fill="var(------overlay_surface_fg, black)" fill-opacity="0.6"/>
<path d="M13.3876 15.3748C13.3876 15.7268 13.1022 16.0123 12.7501 16.0123C12.398 16.0123 12.1126 15.7268 12.1126 15.3748V13.7623H10.4999C10.1478 13.7623 9.86243 13.4769 9.86243 13.1248C9.86243 12.7727 10.1478 12.4873 10.4999 12.4873H12.1126V10.8748C12.1126 10.5227 12.398 10.2373 12.7501 10.2373C13.1022 10.2373 13.3876 10.5227 13.3876 10.8748V12.4873H14.9999C15.352 12.4873 15.6374 12.7727 15.6374 13.1248C15.6374 13.4769 15.352 13.7623 14.9999 13.7623H13.3876V15.3748Z" fill="var(------overlay_surface_fg, black)" fill-opacity="0.6"/>
<path d="M6.75029 11.5122C5.03131 11.5122 3.63779 12.9057 3.63779 14.6247C3.63779 14.6868 3.68816 14.7372 3.75029 14.7372H9.00029C9.35238 14.7372 9.63779 15.0226 9.63779 15.3747C9.63779 15.7268 9.35238 16.0122 9.00029 16.0122H3.75029C2.984 16.0122 2.36279 15.391 2.36279 14.6247C2.36279 12.2016 4.32714 10.2372 6.75029 10.2372H9.00029C9.35238 10.2372 9.63779 10.5226 9.63779 10.8747C9.63779 11.2268 9.35238 11.5122 9.00029 11.5122H6.75029Z" fill="var(------overlay_surface_fg, black)" fill-opacity="0.6"/>
</svg>
