<svg width="16" height="16" viewBox="0 0 16 16" fill="none" xmlns="http://www.w3.org/2000/svg">
<path fill-rule="evenodd" clip-rule="evenodd" d="M2.93257 2.93257C3.15387 2.71128 3.51266 2.71128 3.73396 2.93257L7.99993 7.19855L12.2659 2.93257C12.4872 2.71128 12.846 2.71128 13.0673 2.93257C13.2886 3.15387 13.2886 3.51266 13.0673 3.73396L8.80132 7.99993L13.0673 12.2659C13.2886 12.4872 13.2886 12.846 13.0673 13.0673C12.846 13.2886 12.4872 13.2886 12.2659 13.0673L7.99993 8.80132L3.73396 13.0673C3.51266 13.2886 3.15387 13.2886 2.93257 13.0673C2.71128 12.846 2.71128 12.4872 2.93257 12.2659L7.19855 7.99993L2.93257 3.73396C2.71128 3.51266 2.71128 3.15387 2.93257 2.93257Z" fill="var(------overlay_surface_fg, black)" fill-opacity="0.6"/>
<path d="M12.1953 2.8623C12.4557 2.60196 12.8773 2.60196 13.1377 2.8623C13.398 3.12266 13.398 3.54436 13.1377 3.80469L8.94238 8L13.1377 12.1953C13.398 12.4557 13.398 12.8773 13.1377 13.1377C12.8773 13.398 12.4557 13.398 12.1953 13.1377L8 8.94238L3.80469 13.1377C3.54436 13.398 3.12266 13.398 2.8623 13.1377C2.60196 12.8773 2.60196 12.4557 2.8623 12.1953L7.05762 8L2.8623 3.80469C2.60196 3.54434 2.60196 3.12265 2.8623 2.8623C3.12265 2.60196 3.54434 2.60196 3.80469 2.8623L8 7.05762L12.1953 2.8623Z" stroke="var(------overlay_surface_fg, black)" stroke-opacity="0.6" stroke-width="0.2" stroke-linecap="round"/>
</svg>
