<svg width="24" height="24" viewBox="0 0 24 24" fill="none" xmlns="http://www.w3.org/2000/svg">
<path d="M3.22821 11.5242C3.30128 11.3864 3.49872 11.3864 3.57179 11.5242L4.23156 12.7686L5.47597 13.4284C5.61379 13.5015 5.61379 13.6989 5.47597 13.772L4.23156 14.4318L3.57179 15.6762C3.49872 15.814 3.30128 15.814 3.22821 15.6762L2.56844 14.4318L1.32403 13.772C1.18621 13.6989 1.18621 13.5015 1.32403 13.4284L2.56844 12.7686L3.22821 11.5242Z" fill="var(------icon_primary, #1A1A1A)"/>
<path d="M5.86523 8.67188C6.88908 9.27253 9.65645 10.3562 12.8844 10.1488C13.1816 10.1297 13.4425 10.3608 13.4259 10.6582C13.3444 12.1118 12.9168 13.1175 11.9011 14.5168C11.6557 14.8549 11.8899 15.3382 12.3075 15.3382H15.76C16.0987 15.3382 16.3391 15.6678 16.219 15.9845C15.6236 17.5541 14.5842 19.3665 12.8995 20.5761" stroke="var(------icon_primary, #1A1A1A)" stroke-width="1.7" stroke-linecap="round"/>
<path d="M15.9995 10.0338C18.1639 9.4927 19.4995 8 20.2326 6.24609" stroke="var(------icon_primary, #1A1A1A)" stroke-width="1.7" stroke-linecap="round"/>
<path d="M3.99976 20.315C6.16416 19.7739 8.32856 19.2328 9.95186 17.0684" stroke="var(------icon_primary, #1A1A1A)" stroke-width="1.7" stroke-linecap="round"/>
<circle cx="12.1158" cy="5.1644" r="2.1644" stroke="var(------icon_primary, #1A1A1A)" stroke-width="1.7" stroke-linecap="round" stroke-linejoin="round"/>
</svg>
