<svg width="24" height="24" viewBox="0 0 24 24" fill="none" xmlns="http://www.w3.org/2000/svg">
<path fill-rule="evenodd" clip-rule="evenodd" d="M16.5349 2.15039H7.4649C6.7946 2.15038 6.24037 2.15037 5.78869 2.18728C5.31925 2.22563 4.88622 2.30805 4.47904 2.51552C3.84869 2.8367 3.33621 3.34918 3.01503 3.97952C2.80756 4.38671 2.72514 4.81973 2.68679 5.28918C2.64988 5.74086 2.64989 6.29508 2.6499 6.96538V8.63738C2.6499 9.72612 2.64989 10.5951 2.70722 11.2968C2.76601 12.0164 2.8893 12.6346 3.17852 13.2022C3.64351 14.1148 4.38546 14.8568 5.29805 15.3218C5.86567 15.611 6.48392 15.7343 7.20349 15.7931C7.74476 15.8373 8.38552 15.8474 9.1499 15.8497V19.0004C9.1499 20.5744 10.4259 21.8504 11.9999 21.8504C13.5739 21.8504 14.8499 20.5744 14.8499 19.0004V15.8497C15.6143 15.8474 16.255 15.8373 16.7963 15.7931C17.5159 15.7343 18.1341 15.611 18.7018 15.3218C19.6143 14.8568 20.3563 14.1148 20.8213 13.2022C21.1105 12.6346 21.2338 12.0164 21.2926 11.2968C21.3499 10.5951 21.3499 9.7261 21.3499 8.63732V6.96544C21.3499 6.29511 21.3499 5.74088 21.313 5.28918C21.2747 4.81973 21.1922 4.38671 20.9848 3.97952C20.6636 3.34918 20.1511 2.8367 19.5208 2.51552C19.1136 2.30805 18.6806 2.22563 18.2111 2.18728C17.7594 2.15037 17.2052 2.15038 16.5349 2.15039ZM14.0999 14.1504H9.8999C8.76577 14.1504 7.96629 14.1497 7.34193 14.0987C6.72748 14.0485 6.35786 13.9538 6.06983 13.8071C5.47712 13.5051 4.99523 13.0232 4.69323 12.4305C4.6121 12.2712 4.54688 12.0871 4.49629 11.8504H19.5035C19.4529 12.0871 19.3877 12.2712 19.3066 12.4305C19.0046 13.0232 18.5227 13.5051 17.93 13.8071C17.6419 13.9538 17.2723 14.0485 16.6579 14.0987C16.0335 14.1497 15.234 14.1504 14.0999 14.1504ZM19.6419 10.1504H4.35795C4.35009 9.71243 4.3499 9.20377 4.3499 8.60039V7.00039C4.3499 6.2863 4.35056 5.80185 4.38114 5.42761C4.41091 5.0633 4.46473 4.8789 4.52974 4.75131C4.68793 4.44084 4.94035 4.18842 5.25082 4.03023C5.37841 3.96522 5.56281 3.91139 5.92713 3.88163C6.30136 3.85105 6.78581 3.85039 7.4999 3.85039H11.1631C11.1544 3.89908 11.1499 3.94921 11.1499 4.00039V7.00039C11.1499 7.46983 11.5305 7.85039 11.9999 7.85039C12.4693 7.85039 12.8499 7.46983 12.8499 7.00039V4.00039C12.8499 3.94921 12.8454 3.89908 12.8367 3.85039H15.1631C15.1544 3.89908 15.1499 3.94921 15.1499 4.00039V8.00039C15.1499 8.46983 15.5305 8.85039 15.9999 8.85039C16.4693 8.85039 16.8499 8.46983 16.8499 8.00039V4.00039C16.8499 3.94927 16.8454 3.89921 16.8367 3.85058C17.3716 3.85143 17.7605 3.85612 18.0727 3.88163C18.437 3.91139 18.6214 3.96522 18.749 4.03023C19.0595 4.18842 19.3119 4.44084 19.4701 4.75131C19.5351 4.8789 19.5889 5.0633 19.6187 5.42761C19.6492 5.80185 19.6499 6.2863 19.6499 7.00039V8.60039C19.6499 9.20377 19.6497 9.71243 19.6419 10.1504ZM10.8499 19.0004V15.8504H13.1499V19.0004C13.1499 19.6355 12.635 20.1504 11.9999 20.1504C11.3648 20.1504 10.8499 19.6355 10.8499 19.0004Z" fill="var(------icon_primary, #1A1A1A)"/>
</svg>
