<svg width="20" height="20" viewBox="0 0 20 20" fill="none" xmlns="http://www.w3.org/2000/svg">
<path d="M9.99951 1.79199C14.5327 1.79199 18.2083 5.46681 18.2085 10C18.2085 14.5333 14.5328 18.209 9.99951 18.209C5.46632 18.2088 1.7915 14.5332 1.7915 10C1.79168 5.46692 5.46643 1.79217 9.99951 1.79199ZM9.99951 5.54199C9.6085 5.54221 9.2915 5.85893 9.2915 6.25V9.29199H6.24951C5.8585 9.29221 5.5415 9.60893 5.5415 10C5.5415 10.3911 5.8585 10.7078 6.24951 10.708H9.2915V13.75C9.2915 14.1411 9.6085 14.4578 9.99951 14.458C10.3907 14.458 10.7085 14.1412 10.7085 13.75V10.708H13.7495C14.1407 10.708 14.4585 10.3912 14.4585 10C14.4585 9.6088 14.1407 9.29199 13.7495 9.29199H10.7085V6.25C10.7085 5.8588 10.3907 5.54199 9.99951 5.54199Z" fill="var(------icon_primary, #1A1A1A)"/>
</svg>
