<svg width="14" height="14" viewBox="0 0 14 14" fill="none" xmlns="http://www.w3.org/2000/svg">
<path fill-rule="evenodd" clip-rule="evenodd" d="M6.29493 3.7449C5.38295 2.71893 3.80573 2.64334 2.79982 3.5774C1.90427 4.40898 1.75928 5.77367 2.46011 6.77485L2.51902 6.859C2.84341 7.32243 3.20769 7.75661 3.60768 8.15661L6.93836 11.4873C6.97253 11.5215 7.02794 11.5215 7.06211 11.4873L10.3928 8.15661C10.7928 7.75661 11.1571 7.32243 11.4815 6.859L11.5404 6.77485C12.2412 5.77367 12.0962 4.40898 11.2007 3.5774C10.1947 2.64334 8.61752 2.71893 7.70554 3.7449L7.00023 4.53837L6.29493 3.7449ZM7.00024 3.04633C5.71365 1.64261 3.52536 1.55041 2.12503 2.85071C0.866683 4.01918 0.662956 5.93675 1.6477 7.34354L1.70661 7.42769C2.06414 7.93844 2.46562 8.41697 2.90647 8.85782L6.23715 12.1885C6.65859 12.6099 7.34188 12.6099 7.76332 12.1885L11.094 8.85782C11.5349 8.41697 11.9363 7.93844 12.2939 7.42769L12.3528 7.34353C13.3375 5.93675 13.1338 4.01918 11.8754 2.85071C10.4751 1.55041 8.28682 1.64261 7.00024 3.04633Z" fill="var(------icon_primary, #F3F4F4)"/>
</svg>
