<svg width="14" height="14" viewBox="0 0 14 14" fill="none" xmlns="http://www.w3.org/2000/svg">
<path fill-rule="evenodd" clip-rule="evenodd" d="M6.29493 3.74442C5.38295 2.71844 3.80573 2.64285 2.79982 3.57691C1.90427 4.40849 1.75928 5.77318 2.46011 6.77436L2.51902 6.85852C2.84341 7.32194 3.20769 7.75613 3.60768 8.15612L6.93836 11.4868C6.97253 11.521 7.02794 11.521 7.06211 11.4868L10.3928 8.15612C10.7928 7.75613 11.1571 7.32194 11.4815 6.85852L11.5404 6.77436C12.2412 5.77318 12.0962 4.40849 11.2007 3.57691C10.1947 2.64285 8.61752 2.71844 7.70554 3.74442L7.00023 4.53788L6.29493 3.74442ZM7.00024 3.04584C5.71365 1.64212 3.52536 1.54992 2.12503 2.85023C0.866683 4.0187 0.662956 5.93626 1.6477 7.34305L1.70661 7.4272C2.06414 7.93795 2.46562 8.41649 2.90647 8.85734L6.23715 12.188C6.65859 12.6095 7.34188 12.6095 7.76332 12.188L11.094 8.85734C11.5349 8.41649 11.9363 7.93795 12.2939 7.4272L12.3528 7.34305C13.3375 5.93626 13.1338 4.0187 11.8754 2.85023C10.4751 1.54992 8.28682 1.64212 7.00024 3.04584Z" fill="var(------icon_primary, #F3F4F4)"/>
</svg>
